<svg width="262" height="271" viewBox="0 0 262 271" fill="none" xmlns="http://www.w3.org/2000/svg">
<rect x="3.89355" y="43" width="117.463" height="117.463" rx="58.7314" fill="#CDE1FD"/>
<g clip-path="url(#clip0_1327_1066)">
<path d="M94.8316 71.6701L101.685 65.6162H94.6945L94.8316 71.6701Z" fill="#002DE3"/>
<path d="M131.529 66.3018H97.4266C92.2083 66.3018 87.978 62.0715 87.978 56.8531V52.4487C87.978 47.2303 92.2083 43 97.4266 43L131.529 43C136.748 43 140.978 47.2303 140.978 52.4487V56.8531C140.978 62.0715 136.748 66.3018 131.529 66.3018Z" fill="#002DE3"/>
<path d="M107.396 56.7068C106.261 56.7068 105.34 55.7863 105.34 54.6508C105.34 53.5152 106.261 52.5947 107.396 52.5947C108.532 52.5947 109.452 53.5152 109.452 54.6508C109.452 55.7863 108.532 56.7068 107.396 56.7068Z" fill="white"/>
<path d="M114.478 56.7068C113.343 56.7068 112.422 55.7863 112.422 54.6508C112.422 53.5152 113.343 52.5947 114.478 52.5947C115.614 52.5947 116.534 53.5152 116.534 54.6508C116.534 55.7863 115.614 56.7068 114.478 56.7068Z" fill="white"/>
<path d="M121.56 56.7068C120.425 56.7068 119.504 55.7863 119.504 54.6508C119.504 53.5152 120.425 52.5947 121.56 52.5947C122.696 52.5947 123.616 53.5152 123.616 54.6508C123.616 55.7863 122.696 56.7068 121.56 56.7068Z" fill="white"/>
</g>
<path d="M127.264 142.517L118.17 139.322L111.209 159.135L120.302 162.33L127.264 142.517Z" fill="#1F161E"/>
<path d="M132.978 238.212C133.37 238.829 135.457 242.541 136.613 242.921C138.706 243.602 149.545 239.693 149.838 239.177C150.13 238.66 149.964 237.806 149.353 237.732C148.741 237.659 143.903 238.391 143.119 238.286C142.335 238.18 140.521 236.914 140.308 236" fill="#1F161E"/>
<path d="M0.978027 181.244C0.978027 206.183 12.1721 211.42 23.3075 211.42C51.5142 211.42 88.211 195.385 90.283 194.767C89.6314 197.39 85.52 263.885 85.52 264.268C86.4973 264.809 93.9904 265.275 96.512 264.809C97.1636 263.192 116.978 184.103 116.978 182.02C116.978 179.937 115.271 176.769 108.814 176.312C106.084 176.118 68.1033 175 68.1033 175" fill="#1F161E"/>
<path d="M95.8654 164C104.364 172.746 142.312 233.799 141.976 235.226C141.639 236.653 132.914 239.678 131.07 238.863C123.244 235.434 75.1986 177.81 73.328 176.94C71.4574 176.07 68.6548 176.406 66.9849 176.645C62.6418 171.513 72.3636 165.418 95.8654 164Z" fill="#0F1828"/>
<path d="M57.5023 94.2656C70.2797 94.2656 73.9537 106.364 75.0108 110.932C78.3912 125.517 68.9811 180.94 67.8913 182.467C58.6443 195.395 5.78609 196.543 0.630775 190.944C-4.52454 185.345 22.5898 94.2656 57.5023 94.2656Z" fill="#375FFF"/>
<path d="M86.9752 264C86.8038 264.63 85.5114 268.318 86.1576 269.039C87.3181 270.343 99.3914 271.242 100.051 270.942C100.71 270.642 101.257 269.908 100.822 269.639C100.387 269.37 95.811 268.162 95.2505 267.788C94.69 267.415 94.2218 265.755 94.7955 264.956" fill="#1F161E"/>
<path d="M55.5903 96.818C55.2444 97.9273 64.2629 100.733 64.6088 99.6306L68.1066 88.4063L59.0946 85.5938L55.5903 96.818Z" fill="#F8CDBA"/>
<path d="M64.5308 91.0623C63.6498 90.7882 57.2481 91.5256 56.8174 92.9091L59.0949 85.5938C60.4979 86.031 64.5308 91.0623 64.5308 91.0623Z" fill="#1F161E"/>
<path d="M69.562 92.8632C76.8746 92.8632 82.8026 86.9351 82.8026 79.6225C82.8026 72.3099 76.8746 66.3818 69.562 66.3818C62.2493 66.3818 56.3213 72.3099 56.3213 79.6225C56.3213 86.9351 62.2493 92.8632 69.562 92.8632Z" fill="#F8CDBA"/>
<path d="M82.7686 86.5978C82.9672 85.9613 82.1353 85.1355 80.9105 84.7533C79.6857 84.3711 78.5319 84.5773 78.3332 85.2138C78.1346 85.8502 78.9665 86.676 80.1913 87.0582C81.4161 87.4404 82.57 87.2343 82.7686 86.5978Z" fill="#FA9E9F"/>
<path d="M68.8463 82.256C69.0449 81.6195 68.213 80.7937 66.9882 80.4115C65.7634 80.0293 64.6095 80.2355 64.4109 80.872C64.2123 81.5084 65.0442 82.3342 66.269 82.7164C67.4938 83.0986 68.6477 82.8925 68.8463 82.256Z" fill="#FA9E9F"/>
<path d="M75.8984 81.835C76.1268 82.5528 77.4842 85.6982 74.9326 86.0049" stroke="#0F1828" stroke-width="1.2" stroke-miterlimit="10" stroke-linecap="round"/>
<path d="M69.5554 87.5053C68.9028 87.2769 68.1197 86.1545 67.813 85.2344" stroke="#0F1828" stroke-width="1.2" stroke-miterlimit="10" stroke-linecap="round"/>
<path d="M73.5687 62.251C70.0774 61.8137 59.943 58.7989 57.6394 56.7041C56.5496 57.2784 52.3144 61.0829 48.8623 66.2316L53.7632 71.1586L47.5703 68.3003C45.9382 70.9747 44.8164 73.9286 44.2617 77.0121C45.8605 81.3256 50.8788 83.1006 51.825 83.2181C57.9266 83.9881 60.2693 74.5062 63.3429 73.3316C68.5635 71.3282 74.7107 76.5292 82.4437 76.2029C84.1599 72.6986 81.9281 63.3016 73.5687 62.251Z" fill="#1F161E"/>
<path d="M57.4238 80.4903C59.1141 80.4903 60.4844 79.12 60.4844 77.4297C60.4844 75.7394 59.1141 74.3691 57.4238 74.3691C55.7335 74.3691 54.3633 75.7394 54.3633 77.4297C54.3633 79.12 55.7335 80.4903 57.4238 80.4903Z" fill="#F8CDBA"/>
<path d="M44.2618 125.302C43.6093 129.387 41.4949 167.961 46.5589 171.713C57.4046 179.746 107.489 169.918 115.079 167.106C115.901 164.417 115.079 155.875 115.079 155.875C112.155 155.758 75.272 155.405 73.0729 152.612C70.8737 149.819 70.6127 126.986 70.965 124.408" fill="#375FFF"/>
<path d="M120.182 168C124.099 168 127.275 164.825 127.275 160.907C127.275 156.989 124.099 153.813 120.182 153.813C116.264 153.813 113.088 156.989 113.088 160.907C113.088 164.825 116.264 168 120.182 168Z" fill="#F8CDBA"/>
<path d="M73.0659 152.632C70.8407 149.819 70.6057 127.005 70.9581 124.428" stroke="#0F1828" stroke-linecap="round" stroke-linejoin="round"/>
<path d="M69.601 174.611C59.3818 175.179 50.4481 174.611 46.5588 171.713C44.34 170.075 43.4982 161.768 43.2959 152.6" stroke="#0F1828" stroke-linecap="round" stroke-linejoin="round"/>
<g clip-path="url(#clip1_1327_1066)">
<rect x="162" width="100" height="100" rx="50" fill="#CDE1FD"/>
<g clip-path="url(#clip2_1327_1066)">
<path d="M176.094 56.6804C174.972 55.8937 170.217 50.113 169.657 48.1702C169.096 46.2273 168.675 38.9037 174.22 40.5683C179.766 42.233 177.263 48.1006 181.175 51.7994" fill="#F8CDBA"/>
<path d="M174.238 35.3289L169.221 39.334L177.947 50.2649L182.964 46.2598L174.238 35.3289Z" fill="#1F161E"/>
<path d="M244.802 51.7998C246.167 53.069 260.123 76.5742 260.123 79.5167C260.123 82.4592 256.902 100.306 255.051 104.113C253.199 107.92 244.802 51.7998 244.802 51.7998Z" fill="#1F161E"/>
<path d="M236.591 45.2588C256.68 45.2588 259.306 116.053 257.889 118.9C256.472 121.747 221.344 121.416 218.497 118.9C215.65 116.383 218.115 45.2588 236.591 45.2588Z" fill="#002DE3"/>
<path d="M232.979 47.6232C232.979 48.8837 239.934 48.9793 239.934 47.6232V39.1738H232.979V47.6232Z" fill="#F8CDBA"/>
<path d="M239.942 44.2115C239.942 43.4596 238.204 40.8648 236.9 41.3038C238.538 40.7257 239.347 38.7525 239.942 39.1567V44.2115Z" fill="#0F1828"/>
<path d="M233.371 42.0164C238.366 42.0164 242.415 37.9669 242.415 32.9716C242.415 27.9763 238.366 23.9268 233.371 23.9268C228.375 23.9268 224.326 27.9763 224.326 32.9716C224.326 37.9669 228.375 42.0164 233.371 42.0164Z" fill="#F8CDBA"/>
<path d="M224.226 34.9709C225.059 34.9709 225.734 34.6186 225.734 34.1842C225.734 33.7497 225.059 33.3975 224.226 33.3975C223.393 33.3975 222.718 33.7497 222.718 34.1842C222.718 34.6186 223.393 34.9709 224.226 34.9709Z" fill="#FA9E9F"/>
<path d="M233.709 34.9709C234.542 34.9709 235.218 34.6186 235.218 34.1842C235.218 33.7497 234.542 33.3975 233.709 33.3975C232.876 33.3975 232.201 33.7497 232.201 34.1842C232.201 34.6186 232.876 34.9709 233.709 34.9709Z" fill="#FA9E9F"/>
<path d="M227.899 32.5537C227.62 32.9579 226.16 34.6487 227.699 35.3311" stroke="#0F1828" stroke-width="0.69" stroke-miterlimit="10" stroke-linecap="round"/>
<path d="M230.75 37.3046C231.184 37.3046 231.901 36.7439 232.271 36.2354" stroke="#0F1828" stroke-width="0.69" stroke-miterlimit="10" stroke-linecap="round"/>
<path d="M242.016 27.6991C242.016 24.561 237.639 22.2227 234.592 22.2227C229.741 22.2227 223.83 23.4049 222.857 23.7482C221.223 24.3176 220.944 26.0605 220.944 26.6429C220.944 29.0856 221.814 30.6068 224.526 30.9893C224.711 30.1277 225.031 29.3005 225.473 28.538C226.224 28.2495 227.052 28.2356 227.812 28.4988C228.498 28.7379 234.236 31.4413 238.482 31.4413C239.047 32.2367 240.29 37.0917 239.925 39.1518C241.168 39.2257 243.459 35.1792 243.576 33.0669C243.603 32.342 243.459 31.6209 243.157 30.9613C242.855 30.3017 242.403 29.7219 241.837 29.2682C241.894 28.8118 242.016 27.9469 242.016 27.6991Z" fill="#0F1828"/>
<path d="M238.882 35.3924C239.981 35.3924 240.872 34.5012 240.872 33.4018C240.872 32.3024 239.981 31.4111 238.882 31.4111C237.782 31.4111 236.891 32.3024 236.891 33.4018C236.891 34.5012 237.782 35.3924 238.882 35.3924Z" fill="#F8CDBA"/>
<path d="M241.872 64.3825C236.891 71.993 209.961 83.9978 207.127 83.9978C199.612 83.9978 177.363 59.3059 176.094 56.672C177.558 55.1073 180.679 51.791 181.166 51.791C181.653 51.791 202.833 66.4297 206.836 66.4297C210.839 66.4297 229.811 53.0819 232.28 52.4821" fill="#002DE3"/>
<path d="M225.569 56.3029C228.85 54.2644 231.463 52.678 232.28 52.4824" stroke="#0F1828" stroke-linecap="round" stroke-linejoin="round"/>
<path d="M219.932 78.9216C228.624 74.7447 238.973 68.8249 241.872 64.3916" stroke="#0F1828" stroke-linecap="round" stroke-linejoin="round"/>
<path d="M218.528 89.6912C218.706 87.9918 227.512 75.07 229.211 74.0703C227.408 75.0743 220.579 78.5384 219.932 78.9209C219.554 79.9336 218.528 89.6912 218.528 89.6912Z" fill="#1F161E"/>
</g>
</g>
<g clip-path="url(#clip3_1327_1066)">
<path d="M192.922 26.4242L186.845 21.0557H193.044L192.922 26.4242Z" fill="#375FFF"/>
<path d="M160.379 21.6641L190.621 21.6641C195.249 21.6641 199 17.9127 199 13.2851V9.37923C199 4.75166 195.249 1.00026 190.621 1.00026L160.379 1.00026C155.751 1.00026 152 4.75166 152 9.37923V13.2851C152 17.9127 155.751 21.6641 160.379 21.6641Z" fill="#375FFF"/>
<path d="M181.78 13.1553C182.787 13.1553 183.604 12.339 183.604 11.3321C183.604 10.3251 182.787 9.50879 181.78 9.50879C180.773 9.50879 179.957 10.3251 179.957 11.3321C179.957 12.339 180.773 13.1553 181.78 13.1553Z" fill="white"/>
<path d="M175.5 13.1553C176.507 13.1553 177.323 12.339 177.323 11.3321C177.323 10.3251 176.507 9.50879 175.5 9.50879C174.493 9.50879 173.677 10.3251 173.677 11.3321C173.677 12.339 174.493 13.1553 175.5 13.1553Z" fill="white"/>
<path d="M169.22 13.1553C170.227 13.1553 171.043 12.339 171.043 11.3321C171.043 10.3251 170.227 9.50879 169.22 9.50879C168.213 9.50879 167.396 10.3251 167.396 11.3321C167.396 12.339 168.213 13.1553 169.22 13.1553Z" fill="white"/>
</g>
<defs>
<clipPath id="clip0_1327_1066">
<rect width="53" height="28.6703" fill="white" transform="matrix(-1 0 0 1 140.978 43)"/>
</clipPath>
<clipPath id="clip1_1327_1066">
<rect x="162" width="100" height="100" rx="50" fill="white"/>
</clipPath>
<clipPath id="clip2_1327_1066">
<rect width="111.111" height="219.523" fill="white" transform="translate(169.222 22.2227)"/>
</clipPath>
<clipPath id="clip3_1327_1066">
<rect width="47" height="25.4246" fill="white" transform="translate(152 1)"/>
</clipPath>
</defs>
</svg>
