<svg width="100" height="101" viewBox="0 0 100 101" fill="none" xmlns="http://www.w3.org/2000/svg">
<rect width="100" height="100" rx="50" fill="#252525"/>
<path d="M38.333 40.6667C38.333 34.2233 43.5564 29 49.9997 29C56.443 29 61.6663 34.2233 61.6663 40.6667C61.6663 47.11 56.443 52.3333 49.9997 52.3333C43.5564 52.3333 38.333 47.11 38.333 40.6667ZM49.9997 47.6667C53.8657 47.6667 56.9997 44.5327 56.9997 40.6667C56.9997 36.8007 53.8657 33.6667 49.9997 33.6667C46.1337 33.6667 42.9997 36.8007 42.9997 40.6667C42.9997 44.5327 46.1337 47.6667 49.9997 47.6667Z" fill="white"/>
<path d="M36.8003 60.134C33.2997 63.6347 31.333 68.3826 31.333 73.3333H35.9997C35.9997 69.6203 37.4747 66.0593 40.1002 63.4338C42.7257 60.8083 46.2866 59.3333 49.9997 59.3333C53.7127 59.3333 57.2737 60.8083 59.8992 63.4338C62.5247 66.0593 63.9997 69.6203 63.9997 73.3333H68.6663C68.6663 68.3826 66.6997 63.6347 63.199 60.134C59.6983 56.6333 54.9504 54.6667 49.9997 54.6667C45.049 54.6667 40.301 56.6333 36.8003 60.134Z" fill="white"/>
<path d="M85 99C79.4797 98.994 75.0061 94.5204 75 89V88.8C75.1099 83.3045 79.6346 78.928 85.1307 79.0009C90.6268 79.0738 95.0337 83.5689 94.9978 89.0654C94.9619 94.5618 90.4966 98.9989 85 99ZM80 88V90H84V94H86V90H90V88H86V84H84V88H80Z" fill="white"/>
</svg>
