<svg width="100" height="101" viewBox="0 0 100 101" fill="none" xmlns="http://www.w3.org/2000/svg">
<rect width="100" height="100" rx="50" fill="#F7F7FC"/>
<path d="M38.3335 40.6667C38.3335 34.2233 43.5568 29 50.0002 29C56.4435 29 61.6668 34.2233 61.6668 40.6667C61.6668 47.11 56.4435 52.3333 50.0002 52.3333C43.5568 52.3333 38.3335 47.11 38.3335 40.6667ZM50.0002 47.6667C53.8662 47.6667 57.0002 44.5327 57.0002 40.6667C57.0002 36.8007 53.8662 33.6667 50.0002 33.6667C46.1342 33.6667 43.0002 36.8007 43.0002 40.6667C43.0002 44.5327 46.1342 47.6667 50.0002 47.6667Z" fill="#0F1828"/>
<path d="M36.8008 60.134C33.3002 63.6347 31.3335 68.3826 31.3335 73.3333H36.0002C36.0002 69.6203 37.4752 66.0593 40.1007 63.4338C42.7262 60.8083 46.2871 59.3333 50.0002 59.3333C53.7132 59.3333 57.2742 60.8083 59.8997 63.4338C62.5252 66.0593 64.0002 69.6203 64.0002 73.3333H68.6668C68.6668 68.3826 66.7002 63.6347 63.1995 60.134C59.6988 56.6333 54.9509 54.6667 50.0002 54.6667C45.0495 54.6667 40.3015 56.6333 36.8008 60.134Z" fill="#0F1828"/>
<path d="M85 99C79.4797 98.994 75.0061 94.5204 75 89V88.8C75.1099 83.3045 79.6346 78.928 85.1307 79.0009C90.6268 79.0738 95.0337 83.5689 94.9978 89.0654C94.9619 94.5618 90.4966 98.9989 85 99ZM80 88V90H84V94H86V90H90V88H86V84H84V88H80Z" fill="#0F1828"/>
</svg>
