<svg width="30" height="30" viewBox="0 0 30 30" fill="none" xmlns="http://www.w3.org/2000/svg">
<rect width="30" height="30" rx="15" fill="black"/>
<path d="M0 15V15C0 23.2843 6.71573 30 15 30V30V30C23.2843 30 30 23.2843 30 15V15V15C30 6.71573 23.2843 -1.19209e-06 15 -1.19209e-06V-1.19209e-06V-1.19209e-06C6.71573 -1.19209e-06 0 6.71573 0 15V15ZM16.0195 7.23984C16.8281 7.36641 17.3414 7.51172 18.0047 7.80469C18.3516 7.95937 18.4594 8.025 18.5297 8.13047C18.6797 8.35781 18.593 8.65547 18.3469 8.75391C18.2133 8.80547 18.1523 8.79141 17.7445 8.61094C16.4484 8.03203 15.1383 7.87734 13.8047 8.14687C12.8813 8.33203 12.1523 8.65078 11.3742 9.20625C10.8258 9.59766 10.3688 10.05 9.94219 10.6242C9.70078 10.95 9.63984 11.0133 9.54609 11.0531C9.27656 11.1703 8.97656 10.9664 8.97656 10.6687C8.97656 10.5398 9.08672 10.3336 9.31172 10.0359C9.99375 9.12656 10.8094 8.44922 11.8289 7.93594C12.607 7.54687 13.4438 7.30781 14.4141 7.19531C14.7234 7.16016 15.6773 7.18594 16.0195 7.23984ZM15.6914 8.81484C16.8938 8.95547 17.9367 9.41016 18.8414 10.1859C19.4672 10.7227 20.2242 11.7398 20.2266 12.0422C20.2266 12.3586 19.8727 12.5742 19.6125 12.4148C19.5117 12.3539 19.4766 12.3094 19.2844 12.0187C18.8625 11.3766 18.2461 10.7555 17.6484 10.3711C17.4164 10.2211 16.9688 10.0102 16.6664 9.90469C15.2461 9.41016 13.6758 9.59766 12.4688 10.4039C11.9133 10.7766 11.393 11.325 11.0273 11.925C10.7273 12.4219 10.5492 12.8508 10.4016 13.4297C10.3523 13.6289 10.2914 13.8187 10.268 13.8516C10.1484 14.0156 9.93516 14.0766 9.76172 13.9922C9.51328 13.8727 9.46641 13.6805 9.57422 13.2187C9.83672 12.0703 10.5023 10.9242 11.332 10.2C11.9578 9.64922 12.4664 9.35391 13.2422 9.08203C13.568 8.96953 14.0133 8.86406 14.325 8.82656C14.6484 8.78672 15.4031 8.77969 15.6914 8.81484ZM19.9102 9.03516C20.0273 9.10312 20.4516 9.52266 20.6977 9.81328C21.0867 10.2773 21.4617 10.8328 21.532 11.0555C21.5648 11.1562 21.5648 11.1937 21.5414 11.2711C21.5063 11.3953 21.4102 11.5055 21.293 11.557C21.1734 11.6133 21.0891 11.6133 20.9813 11.557C20.8664 11.4984 20.8055 11.4281 20.5992 11.1234C20.3461 10.7461 20.0625 10.3992 19.6828 10.0031C19.4977 9.80859 19.3242 9.61172 19.2961 9.56484C19.1859 9.38906 19.2656 9.13125 19.4648 9.02812C19.6289 8.94375 19.7531 8.94375 19.9102 9.03516ZM15.9492 10.4766C16.7719 10.65 17.4375 11.0109 18.0234 11.6016C18.4852 12.0633 18.8672 12.6445 18.8672 12.8859C18.8672 13.125 18.6867 13.3125 18.4547 13.3125C18.2883 13.3125 18.1734 13.207 17.9039 12.8109C17.5008 12.218 17.0578 11.8219 16.4906 11.5547C16.0219 11.3297 15.668 11.25 15.1594 11.25C14.618 11.25 14.182 11.3437 13.7367 11.557C13.0805 11.8687 12.6258 12.3211 12.2883 12.9937C11.7867 13.9898 11.7773 15.3867 12.2648 16.4062C12.4898 16.8797 12.9422 17.4023 13.3688 17.6812C14.0016 18.0984 14.8383 18.2719 15.6352 18.1523C15.7641 18.1336 15.8977 18.1242 15.9328 18.1312C16.2563 18.2086 16.3992 18.5578 16.2117 18.8062C16.0805 18.9773 15.8883 19.0172 15.1641 19.0172C14.7 19.0172 14.5711 19.0102 14.3438 18.968C12.8484 18.6891 11.6555 17.6086 11.2289 16.1461C10.9875 15.3187 10.9852 14.1891 11.2195 13.3594C11.2781 13.1555 11.4305 12.7641 11.5313 12.5648C11.8945 11.8406 12.6023 11.1375 13.3031 10.8047C13.6828 10.6219 14.1656 10.4836 14.6016 10.4297C14.9109 10.3922 15.682 10.418 15.9492 10.4766ZM8.83828 11.8242C8.93672 11.8875 9.02344 12.0492 9.02344 12.1641C9.02344 12.2648 8.78438 13.0219 8.7 13.193C8.625 13.343 8.51953 13.4109 8.35781 13.4109C8.20781 13.4109 8.09063 13.3453 8.01094 13.2211C7.94531 13.118 7.94297 13.1039 7.95234 12.9258C7.97344 12.5883 8.20781 11.9273 8.33438 11.8453C8.50547 11.7305 8.68828 11.7234 8.83828 11.8242ZM8.3625 14.2875C8.53594 14.4 8.55469 14.4703 8.55469 15.0281C8.55703 15.5391 8.54297 15.6187 8.43281 15.7172C8.21953 15.9141 7.92891 15.8508 7.79297 15.5766C7.73672 15.4641 7.73438 15.443 7.73438 14.993C7.73438 14.6086 7.74141 14.5125 7.77188 14.4445C7.87266 14.2336 8.16094 14.1562 8.3625 14.2875ZM10.0547 14.8172C10.1766 14.9016 10.2188 14.9766 10.2422 15.1523C10.3406 15.8461 10.3922 16.0852 10.5469 16.5305C10.6547 16.8469 10.8328 17.2102 11.0273 17.5195C11.4375 18.1711 12.0164 18.7336 12.682 19.132C13.4672 19.5984 14.5477 19.8562 15.4008 19.7812C16.0195 19.725 16.0383 19.725 16.1391 19.7766C16.4391 19.9289 16.4719 20.3156 16.2 20.4984C16.0828 20.5781 15.8742 20.6039 15.2578 20.618C14.7516 20.6297 14.6438 20.625 14.3391 20.5805C12.5203 20.318 11.0156 19.2891 10.1156 17.7C9.81094 17.1633 9.57188 16.4461 9.46641 15.7687C9.40547 15.368 9.40078 15.082 9.45 14.9883C9.53438 14.8312 9.64453 14.7703 9.84609 14.768C9.94453 14.7656 9.99609 14.7773 10.0547 14.8172ZM18.6281 16.2984C18.7008 16.3359 18.8016 16.4414 18.8414 16.5164C18.8555 16.5445 18.8672 16.6219 18.8672 16.6898C18.8672 16.875 18.7289 17.1328 18.3867 17.5898C18.1453 17.9109 17.8547 18.2133 17.7258 18.2789C17.4984 18.3937 17.2594 18.3094 17.1539 18.082C17.0578 17.8734 17.1023 17.7562 17.4023 17.4234C17.6531 17.1445 17.7797 16.9758 18 16.6195C18.1828 16.3242 18.2555 16.2656 18.4383 16.2656C18.5086 16.2656 18.593 16.2797 18.6281 16.2984ZM8.69063 16.6617C8.77266 16.718 8.85 16.8562 8.98594 17.1867C9.33516 18.0328 9.83672 18.7828 10.4906 19.4414C10.9383 19.8891 11.3578 20.2102 11.8945 20.5195C12.0234 20.5922 12.157 20.6789 12.1922 20.7117C12.4711 20.9742 12.293 21.4453 11.9156 21.4453C11.7352 21.4453 10.875 20.9297 10.3875 20.5289C10.1133 20.3016 9.56953 19.7508 9.34922 19.4766C8.97656 19.0102 8.64375 18.4875 8.40703 17.993C8.22422 17.6086 8.03672 17.1164 8.03203 17.0086C8.02734 16.868 8.09766 16.7414 8.22422 16.6594C8.31797 16.5984 8.34844 16.5914 8.47266 16.5984C8.57344 16.6055 8.63672 16.6219 8.69063 16.6617ZM19.9992 17.025C20.1891 17.1023 20.3156 17.3297 20.2758 17.5125C20.2148 17.7773 19.6898 18.5461 19.2844 18.9656C19.0969 19.1602 19.05 19.1953 18.9445 19.2281C18.8344 19.2586 18.8063 19.2586 18.7055 19.2281C18.5672 19.1883 18.4359 19.0547 18.3984 18.9164C18.3563 18.7594 18.3961 18.6703 18.6211 18.4219C18.893 18.1219 19.1977 17.7164 19.3875 17.4023C19.5586 17.1187 19.5914 17.0812 19.7109 17.0297C19.8141 16.9852 19.9031 16.9828 19.9992 17.025ZM20.5242 19.0102C20.7047 19.0969 20.8125 19.2914 20.7773 19.4672C20.7563 19.5844 20.6063 19.7906 20.3297 20.0812C20.0438 20.3836 19.9406 20.4492 19.7883 20.4281C19.6383 20.4094 19.5516 20.3555 19.4742 20.2312C19.3781 20.0789 19.3781 19.9219 19.4766 19.7789C19.6008 19.6008 20.1188 19.0453 20.2031 19.0031C20.3109 18.9492 20.4 18.9492 20.5242 19.0102ZM16.9406 21.2367C17.175 21.3516 17.2359 21.6445 17.0695 21.8648C16.9641 22.0031 16.732 22.0711 16.0195 22.1766C15.3633 22.2727 14.1281 22.2305 13.8797 22.1039C13.6594 21.9914 13.5727 21.7312 13.6828 21.525C13.7273 21.4383 13.8703 21.3305 13.957 21.3141C14.0063 21.3047 14.1727 21.3164 14.3391 21.3422C14.9391 21.4266 15.6844 21.3914 16.3711 21.2461C16.7016 21.1758 16.8117 21.1758 16.9406 21.2367Z" fill="white"/>
</svg>
