<svg width="24" height="25" viewBox="0 0 24 25" fill="none" xmlns="http://www.w3.org/2000/svg">
<path d="M24.0003 12.5171C24.0003 11.5103 23.9186 10.7756 23.7418 10.0137H12.2451V14.5579H18.9934C18.8574 15.6872 18.1227 17.3878 16.49 18.5306L16.4671 18.6828L20.1021 21.4988L20.354 21.5239C22.6669 19.3878 24.0003 16.245 24.0003 12.5171Z" fill="#4285F4"/>
<path d="M12.245 24.4902C15.5511 24.4902 18.3266 23.4017 20.3539 21.5242L16.4899 18.5309C15.4559 19.252 14.0681 19.7554 12.245 19.7554C9.00692 19.7554 6.25863 17.6194 5.27894 14.667L5.13534 14.6792L1.35558 17.6044L1.30615 17.7418C3.31975 21.7418 7.45583 24.4902 12.245 24.4902Z" fill="#34A853"/>
<path d="M5.27888 14.6665C5.02038 13.9046 4.87078 13.0882 4.87078 12.2447C4.87078 11.4011 5.02038 10.5848 5.26528 9.82292L5.25844 9.66066L1.43131 6.68848L1.3061 6.74804C0.476198 8.40793 0 10.2719 0 12.2447C0 14.2175 0.476198 16.0814 1.3061 17.7413L5.27888 14.6665Z" fill="#FBBC05"/>
<path d="M12.245 4.73468C14.5443 4.73468 16.0953 5.72788 16.9797 6.55787L20.4355 3.18369C18.3131 1.2109 15.5511 0 12.245 0C7.45583 0 3.31975 2.74829 1.30615 6.74828L5.26534 9.82316C6.25863 6.87078 9.00692 4.73468 12.245 4.73468Z" fill="#EB4335"/>
</svg>
